<svg width="32" height="32" fill="none" xmlns="http://www.w3.org/2000/svg"><path fill-rule="evenodd" clip-rule="evenodd" d="M15.333 11.334a4.65 4.65 0 01-1.188 3.11 6 6 0 01-3.479 10.89h-6a2 2 0 01-2-2v-16a2 2 0 012-2H10a5.333 5.333 0 015.333 5.333v.667zm-10 2V8H10a2.667 2.667 0 012.666 2.667v.667a2 2 0 01-2 2H5.333zm0 2.666h5.333a3.333 3.333 0 110 6.667H5.333V16z" fill="#C4B6B6"/><path d="M20 8a1.334 1.334 0 011.333-1.333H26a1.333 1.333 0 110 2.666h-4.667A1.333 1.333 0 0120 8z" fill="#C4B6B6"/><path fill-rule="evenodd" clip-rule="evenodd" d="M23.666 10.666c-3.788 0-7 2.91-7 6.667v1.334c0 3.757 3.212 6.666 7 6.666 2.02 0 3.483-.581 4.463-1.213.59-.379 1.052-.84 1.497-1.37a1.333 1.333 0 00-2.193-1.517 3.004 3.004 0 01-.747.645c-.574.37-1.54.788-3.02.788-2.47 0-4.333-1.866-4.333-4h10a1.334 1.334 0 001.334-1.333c0-3.757-3.213-6.666-7-6.666zM27.75 16c-.586-1.521-2.149-2.667-4.084-2.667-1.934 0-3.497 1.146-4.084 2.667h8.168z" fill="#C4B6B6"/></svg>