<svg width="32" height="32" fill="none" xmlns="http://www.w3.org/2000/svg"><path fill-rule="evenodd" clip-rule="evenodd" d="M4.795 14.29c3.456.287 6.765-.406 9.505-1.973a31.393 31.393 0 00-4.812-5.594 11.332 11.332 0 00-4.693 7.568zm4.13-10.373A13.993 13.993 0 002 16c0 7.732 6.268 14 14 14s14-6.268 14-14S23.732 2 16 2a13.936 13.936 0 00-7.075 1.916v.001zm3.048 1.484a34.27 34.27 0 014.504 5.376 13.585 13.585 0 003.76-5.293A11.301 11.301 0 0016 4.667a11.306 11.306 0 00-4.025.736l-.002-.002zm10.615 1.376a16.134 16.134 0 01-4.684 6.29c.464.812.895 1.642 1.29 2.489 2.511-.977 5.227-1.428 8.02-1.197a11.33 11.33 0 00-4.625-7.58l-.001-.002zm4.697 10.264c-2.429-.248-4.826.12-7.056.975a30.986 30.986 0 011.818 7.57 11.33 11.33 0 005.237-8.545h.001zm-7.808 9.747a27.947 27.947 0 00-1.665-7.62c-2.824 1.623-5.248 4.048-6.932 6.945a11.285 11.285 0 005.12 1.22c1.213 0 2.383-.19 3.479-.544l-.002-.001zm-10.82-2.155c1.952-3.298 4.787-6.096 8.123-7.945a31.995 31.995 0 00-1.08-2.103c-3.219 1.856-7.067 2.672-10.995 2.372a11.31 11.31 0 003.952 7.676z" fill="#C4B6B6"/></svg>