<svg width="32" height="32" fill="none" xmlns="http://www.w3.org/2000/svg"><path fill-rule="evenodd" clip-rule="evenodd" d="M2.667 8A5.333 5.333 0 018 2.667h16A5.333 5.333 0 0129.334 8v16A5.333 5.333 0 0124 29.333H8A5.333 5.333 0 012.667 24V8zM8 5.333A2.667 2.667 0 005.334 8v16A2.667 2.667 0 008 26.666h8v-9.333h-1.333a1.333 1.333 0 110-2.666H16v-2A4.666 4.666 0 0120.667 8h.8a1.333 1.333 0 010 2.666h-.8a2 2 0 00-2 2v2h2.8a1.334 1.334 0 010 2.667h-2.8v9.334H24A2.666 2.666 0 0026.667 24V8A2.667 2.667 0 0024 5.333H8z" fill="#C4B6B6"/></svg>