<svg width="18" height="19" fill="none" xmlns="http://www.w3.org/2000/svg"><path fill-rule="evenodd" clip-rule="evenodd" d="M6.29 19c-1.657 0-3.23-.666-4.433-1.875-2.388-2.403-2.486-6.213-.219-8.494l7.386-7.43A4.084 4.084 0 0111.946 0c1.193 0 2.327.479 3.192 1.349 1.721 1.731 1.787 4.482.146 6.132L7.89 14.91a2.535 2.535 0 01-1.816.748 2.738 2.738 0 01-1.95-.821c-1.053-1.061-1.086-2.752-.073-3.772l6.825-6.855a.999.999 0 111.417 1.41l-6.824 6.856c-.24.242-.207.669.074.951a.76.76 0 00.531.231.55.55 0 00.398-.158l7.395-7.429c.867-.873.802-2.358-.146-3.312-.907-.912-2.446-.984-3.278-.148l-7.386 7.43c-1.494 1.503-1.396 4.049.22 5.674C4.1 16.544 5.17 17 6.29 17a3.648 3.648 0 002.61-1.064l7.387-7.43a1 1 0 111.418 1.41l-7.387 7.43C9.258 18.412 7.828 19 6.29 19z" fill="#9C9C9C"/></svg>