<svg width="32" height="32" fill="none" xmlns="http://www.w3.org/2000/svg"><path fill-rule="evenodd" clip-rule="evenodd" d="M8 2.667A5.333 5.333 0 002.667 8v16A5.333 5.333 0 008 29.333h16A5.333 5.333 0 0029.334 24V8A5.333 5.333 0 0024 2.667H8zM5.334 8A2.667 2.667 0 018 5.333h16A2.667 2.667 0 0126.667 8v16A2.667 2.667 0 0124 26.666H8A2.667 2.667 0 015.334 24V8zM12 14.666a1.333 1.333 0 00-2.666 0v8a1.333 1.333 0 102.666 0v-8zM12.667 10a2 2 0 11-4 0 2 2 0 014 0zM16 13.333c.454 0 .854.227 1.094.57a4.68 4.68 0 012.24-.57c2.88 0 4.666 2.568 4.666 4.761v4.572a1.333 1.333 0 01-2.666 0v-4.573c0-1.024-.88-2.095-2-2.095-.699 0-1.471.38-2 1.284v5.384a1.333 1.333 0 11-2.667 0v-8A1.333 1.333 0 0116 13.333z" fill="#C4B6B6"/></svg>