<svg width="135" height="75" fill="none" xmlns="http://www.w3.org/2000/svg"><g clip-path="url(#clip0_14_1065)"><path d="M19.08 10.976h-2.35v2.482h2.352v-2.482zm4.705 0h2.352V8.623H19.08v2.351h4.705zm4.835 0h-2.352v2.482h2.352v-2.482zm2.353 2.482h-2.352v2.352h2.352v-2.352zm2.352-2.482h-2.352v2.482h2.352v-2.482zm4.835-2.352h-4.834v2.351h7.186v-2.35H38.16zm4.706 2.352h-2.353v2.482h2.353v-2.482zm0 2.482v9.538h2.483v-9.538h-2.483zm0 9.539h-2.353v2.352h2.353v-2.352z" fill="#000"/><path d="M40.514 25.348H38.16V27.7h2.352v-2.352zM38.16 27.7h-2.482v2.352h2.483V27.7zm-2.482 2.352h-2.353v2.352h2.353v-2.352zm-2.353 2.483h-2.352v2.352h2.352v-2.352zm-2.352 2.352h-2.352v2.352h2.352v-2.352zm-2.353-2.352h-2.352v2.352h2.352v-2.352zm-2.351-2.483h-2.483v2.483h2.483v-2.483zM23.785 27.7h-2.352v2.352h2.352V27.7zm-2.353-2.352H19.08V27.7h2.352v-2.352z" fill="#000"/><path d="M19.08 22.997h-2.35v2.352h2.352v-2.352zm-2.352-2.483v-7.056h-2.483v9.408h2.483v-2.352z" fill="#000"/><path d="M19.08 13.458h-2.35v2.352h2.352v-2.352z" fill="#fff"/><path d="M40.514 13.458v-2.482h-7.189v2.482h-2.352v2.352h-2.352v-2.352H26.27v-2.482h-4.836v2.482h-2.352v2.352H16.73v7.187h2.352v2.351h2.352V27.7h2.353v2.352h2.483v2.483h2.352v2.352h2.352v-2.352h2.353v-2.483h2.352V27.7h2.483v-2.352h2.353v-2.351h2.352v-9.539h-2.352z" fill="#CE0002"/><path d="M21.432 10.976H19.08v2.351h2.352v-2.351z" fill="#fff"/><path d="M78.674 13.458v-2.482H76.32V8.623h-7.057v2.351H66.78v2.483h-2.35v-2.482h-2.483V8.623H54.89v2.351h2.352v2.483H54.89v2.352h-2.353v-2.352h2.353v-2.482h-2.353v2.482h-2.352v9.408h2.352v2.482h2.353v-2.482h-2.353v-2.352h26.137v2.352H76.32v2.482h2.353v-2.482h2.483v-9.408h-2.483zm-2.353 11.89H73.97V27.7h2.352v-2.352zM73.97 27.7h-2.353v2.352h2.352V27.7zm-2.353 2.352h-2.483v2.352h2.483v-2.352zm-2.483 2.352H66.78v2.482h2.353v-2.482zm-2.352 2.483h-2.353v2.352h2.353v-2.352zm-2.353-2.483h-2.483v2.482h2.483v-2.482zm-2.483-2.352h-2.353v2.352h2.353v-2.352z" fill="#000"/><path d="M59.594 27.7H57.24v2.352h2.353V27.7zm-2.353-2.352h-2.352V27.7h2.352v-2.352z" fill="#000"/><path d="M54.889 13.458h-2.352v2.352h2.352v-2.352z" fill="#fff"/><path d="M76.322 20.514H52.537v2.352h2.352v2.482h2.352V27.7h2.353v2.352h2.352v2.352h2.483v2.482h2.352v-2.482h2.353v-2.352h2.483V27.7h2.352v-2.352h2.353v-2.482h2.352v-2.352h-2.352z" fill="#CE0002"/><path d="M57.241 10.976h-2.352v2.351h2.352v-2.351z" fill="#fff"/><path d="M90.698 11.106h-2.353v2.352h2.353v-2.352z" fill="#000"/><path d="M114.483 13.458v-2.482h-2.353V8.623h-7.057v2.351h-2.483v2.483h-2.352v-2.482h-2.353V8.754h-7.188v2.352h2.353v2.352h-2.353v2.352h-2.352v-2.352h-2.352v9.408h2.352v2.482h2.352V27.7h2.353v2.352h2.482v2.352h2.353v2.483h2.353v2.352h2.352v-2.352h-2.352v-2.483h-2.353v-2.352h7.057v2.352h-2.352v2.483h2.352v-2.483h2.483v-2.352h2.353V27.7h2.352v-2.352h2.353v-2.482h2.483v-9.408h-2.483z" fill="#000"/><path d="M90.697 13.458h-2.352v2.352h2.352v-2.352z" fill="#fff"/><path d="M102.59 32.404h-2.352v2.482h2.352v-2.482zm-2.353-2.352h-2.352v2.352h2.352v-2.352zm2.353 0h-2.352v2.352h2.352v-2.352z" fill="#CE0002"/><path d="M104.942 30.052h-2.352v2.352h2.352v-2.352z" fill="#CE0002"/><path d="M93.05 11.106h-2.353v2.352h2.353v-2.352z" fill="#fff"/><path d="M13.592 57.36v-1.437h-1.438v10.061h1.438v1.438H7.84v-1.438h1.44V55.923H7.84v1.438H6.404v-4.312h8.625v4.312h-1.437zm11.238 9.931h-5.75v-1.437h-1.307v-7.187h1.438V57.23h7.188v1.437h1.437v7.187H26.4v1.437h-1.57zm-1.306-1.437h1.437v-7.187H20.65v7.187h2.875zM36.2 71.472h-5.619v-1.437h5.62v-1.307h1.437v-1.437H32.02v-1.437h-1.44V57.23h2.875v8.624h4.182V57.23h2.875v11.498h-1.437v1.438h-1.438v1.437l-1.437-.13zm12.808-4.181H47.57v-2.875h2.875v2.875h-1.437zm14.114 0h-5.75v-1.437h-1.437v-2.875h2.875v2.875h4.312v-4.312h-1.437v-1.437H58.81v-1.438h-1.438V57.23h-1.437v-2.875h1.437V53.05h7.188v1.437h1.438v2.875h-2.876v-2.875H58.81v2.875h1.437v1.437h2.875v1.437h1.438v1.438h1.438v4.311H64.56v1.438l-1.438-.131zm12.807 0h-2.875v-1.437h-1.438v-7.187h-2.875V57.23h2.875v-2.875h1.438V53.05h1.438v4.312h2.875v1.437H74.49v7.185h1.438v-1.437h2.875v1.437h-1.437v1.438l-1.438-.131zm9.933 0h-4.313v-1.437h1.437v-7.187H81.55V57.23h2.875v1.437h1.438V57.23h4.312v1.437h1.438v2.875h-2.875v-2.875H87.3v1.438h-1.438v5.749H87.3v1.437h-1.438zm15.551 0h-5.75v-1.437h-1.437v-7.187h1.437V57.23h7.188v1.437h1.438v2.875h-7.188v4.312h4.312v-1.438h2.876v1.438h-1.438v1.437h-1.438zm-1.437-7.056h1.437v-1.437h-4.312v1.437h2.875zm15.683 7.056h-1.438v-1.437h-1.438v-4.312h-2.875v4.312h2.875v1.437h-4.312v-1.437h-1.438v-4.312h1.438v-1.438h4.312v-1.437h-4.312V57.23h5.75v1.437h1.438v7.187h1.437v1.437h-1.437zm8.495-1.437v-5.75h-1.438v7.187h-2.875V57.23h4.313v1.437h1.437V57.23h2.875v1.437h1.438v8.624h-2.875v-7.187h-1.438v5.75h-1.437z" fill="#000"/></g><defs><clipPath id="clip0_14_1065"><path fill="#fff" d="M0 0h135v75H0z"/></clipPath></defs></svg>