<svg width="32" height="32" fill="none" xmlns="http://www.w3.org/2000/svg"><path fill-rule="evenodd" clip-rule="evenodd" d="M4.667 16a11.333 11.333 0 117.43 10.644c.77-2.062 1.516-4.132 2.239-6.21.765.546 1.753.9 2.997.9 2.58 0 5.3-1.7 5.974-5.073C24.156 12.028 20.765 8 16 8c-2.004 0-3.975.805-5.45 2.083C9.074 11.364 8 13.209 8 15.333c0 1.034.312 2.184 1.055 2.942a1.347 1.347 0 001.888.001 1.333 1.333 0 00.029-1.856c-1.048-1.307.333-3.461 1.325-4.321 1.031-.894 2.392-1.432 3.703-1.432 3.236 0 5.179 2.638 4.693 5.072-.405 2.018-1.941 2.928-3.36 2.928-1.09 0-1.677-.46-2.053-1.056.205-.646.38-1.232.505-1.71.256-.982.411-2.168-.473-2.905-.657-.547-1.433-.427-1.908-.188-.884.44-1.404 1.472-1.404 2.525 0 .588.092 1.5.423 2.443a228.683 228.683 0 01-2.718 7.65A11.323 11.323 0 014.667 16zM16 2C8.268 2 2 8.268 2 16s6.268 14 14 14 14-6.268 14-14S23.732 2 16 2z" fill="#C4B6B6"/></svg>