<svg width="32" height="32" fill="none" xmlns="http://www.w3.org/2000/svg"><path fill-rule="evenodd" clip-rule="evenodd" d="M9.664 5.426c1.577-1.872 3.809-2.76 6.336-2.76 2.587 0 4.806 1.046 6.352 2.951 1.374 1.694 2.151 3.979 2.293 6.636l.122.019.027.004c.226.032.497.072.779.127 1.04.2 2.818.71 3.43 2.618.307.959.154 1.847-.384 2.55-.462.607-1.124.958-1.597 1.17-.235.107-.47.198-.667.274.462 1.247 1.264 2.532 2.152 3.694.836 1.096.615 2.484.183 3.39-.434.906-1.37 1.942-2.732 2-.77.034-1.58.114-2.385.26-.364.067-.794.213-1.327.433-.319.13-.61.261-.925.401-.251.112-.515.23-.82.36-1.254.539-2.794 1.113-4.5 1.113-1.707 0-3.247-.574-4.5-1.113-.306-.13-.571-.248-.82-.36a36.149 36.149 0 00-.926-.401c-.533-.22-.963-.367-1.327-.434a17.633 17.633 0 00-2.386-.258c-1.362-.059-2.299-1.095-2.73-2.002-.433-.905-.654-2.293.182-3.389.893-1.17 1.7-2.464 2.16-3.72-.202-.08-.402-.164-.599-.255-.461-.216-1.088-.56-1.55-1.14-.517-.648-.745-1.484-.542-2.44.432-2.05 2.36-2.56 3.379-2.753.29-.053.57-.093.806-.127l.047-.006.16-.023c.132-2.833.904-5.15 2.31-6.818zm2.04 1.718C10.688 8.35 10 10.29 10 13.144v.139l-.029.137c-.148.698-.685 1.025-.952 1.15-.28.133-.583.198-.796.238-.208.039-.44.07-.647.098l-.06.01c-.229.03-.456.066-.682.107-1.02.19-1.214.444-1.263.68-.035.169-.004.204.013.222l.006.005c.07.09.241.223.596.389.165.077.34.148.533.226l.048.019c.17.067.37.148.548.232.175.08.467.227.715.464.288.276.636.814.466 1.525-.485 2.041-1.71 4.007-2.88 5.54a.316.316 0 00-.022.142c0 .126.036.3.122.482.088.183.2.323.304.407.086.07.134.08.14.08.867.037 1.8.128 2.746.3.644.117 1.28.35 1.867.592.324.133.696.299 1.057.459.252.111.498.22.72.316 1.198.513 2.317.897 3.45.897 1.134 0 2.254-.384 3.451-.898.221-.094.468-.205.72-.316.36-.16.733-.325 1.056-.458.587-.243 1.223-.475 1.867-.592.947-.174 1.88-.263 2.746-.3.009 0 .055-.01.14-.08.13-.113.233-.251.305-.407a1.18 1.18 0 00.122-.483c0-.123-.03-.153-.02-.138-1.17-1.534-2.397-3.5-2.884-5.543-.18-.76.232-1.306.516-1.56a2.79 2.79 0 01.73-.443c.18-.08.382-.155.556-.22l.064-.026a8.16 8.16 0 00.558-.226c.36-.16.514-.285.566-.347a.598.598 0 00-.028-.127c-.122-.379-.465-.635-1.4-.816-.213-.04-.427-.072-.654-.107l-.05-.007a13.05 13.05 0 01-.631-.1 3.12 3.12 0 01-.785-.249c-.28-.139-.774-.47-.915-1.137l-.03-.137v-.14c0-2.6-.675-4.56-1.718-5.845C19.262 6.04 17.815 5.333 16 5.333c-1.873 0-3.306.635-4.297 1.81h.002z" fill="#C4B6B6"/></svg>